<svg xmlns="http://www.w3.org/2000/svg" xmlns:xlink="http://www.w3.org/1999/xlink" version="1.1" data-diagram-type="DESCRIPTION" style="width:391px;height:215px;background:#FFFFFF;" width="391px" height="215px" viewBox="0 0 391 215" zoomAndPan="magnify" preserveAspectRatio="none" contentStyleType="text/css"><?plantuml 1.2026.7beta3?><defs/><g><!--entity S--><g class="entity" data-qualified-name="S" id="ent0001" data-source-line="3"><polygon points="129.36,16,139.36,6,215.2702,6,215.2702,42.2969,205.2702,52.2969,129.36,52.2969,129.36,16" fill="#F1F1F1" style="stroke:#181818;stroke-width:0.5;stroke-linejoin:miter;stroke-miterlimit:10;"/><line x1="205.2702" y1="16" x2="215.2702" y2="6" style="stroke:#181818;stroke-width:0.5;"/><line x1="129.36" y1="16" x2="205.2702" y2="16" style="stroke:#181818;stroke-width:0.5;"/><line x1="205.2702" y1="16" x2="205.2702" y2="52.2969" style="stroke:#181818;stroke-width:0.5;"/><text x="144.36" y="38.9951" fill="#000000" font-size="14" lengthAdjust="spacing" textLength="45.9102" font-family="sans-serif">Server</text></g><!--entity TC--><g class="entity" data-qualified-name="TC" id="ent0002" data-source-line="5"><polygon points="16,154.29,26,144.29,136.6299,144.29,136.6299,180.5869,126.6299,190.5869,16,190.5869,16,154.29" fill="#F1F1F1" style="stroke:#181818;stroke-width:0.5;stroke-linejoin:miter;stroke-miterlimit:10;"/><line x1="126.6299" y1="154.29" x2="136.6299" y2="144.29" style="stroke:#181818;stroke-width:0.5;"/><line x1="16" y1="154.29" x2="126.6299" y2="154.29" style="stroke:#181818;stroke-width:0.5;"/><line x1="126.6299" y1="154.29" x2="126.6299" y2="190.5869" style="stroke:#181818;stroke-width:0.5;"/><text x="31" y="177.2851" fill="#000000" font-size="14" lengthAdjust="spacing" textLength="80.6299" font-family="sans-serif">Train Client</text></g><!--entity RCC--><g class="entity" data-qualified-name="RCC" id="ent0003" data-source-line="6"><polygon points="171.82,154.29,181.82,144.29,366.8112,144.29,366.8112,180.5869,356.8112,190.5869,171.82,190.5869,171.82,154.29" fill="#F1F1F1" style="stroke:#181818;stroke-width:0.5;stroke-linejoin:miter;stroke-miterlimit:10;"/><line x1="356.8112" y1="154.29" x2="366.8112" y2="144.29" style="stroke:#181818;stroke-width:0.5;"/><line x1="171.82" y1="154.29" x2="356.8112" y2="154.29" style="stroke:#181818;stroke-width:0.5;"/><line x1="356.8112" y1="154.29" x2="356.8112" y2="190.5869" style="stroke:#181818;stroke-width:0.5;"/><text x="186.82" y="177.2851" fill="#000000" font-size="14" lengthAdjust="spacing" textLength="154.9912" font-family="sans-serif">Remote Control Client</text></g><!--link S to TC--><g class="link" data-entity-1="ent0001" data-entity-2="ent0002" id="lnk4" data-source-line="8" data-link-type="dependency"><path d="M153.5813,56.7382 C135.8013,81.9882 112.8693,114.5423 95.0693,139.8123" style="stroke:#181818;stroke-width:1;" fill="none" id="S-TC"/><polygon points="156.46,52.65,148.0078,57.7057,153.5813,56.7382,154.5488,62.3117,156.46,52.65" fill="#181818" style="stroke:#181818;stroke-width:1;stroke-linejoin:miter;stroke-miterlimit:10;"/><polygon points="92.19,143.9,100.643,138.8456,95.0693,139.8123,94.1027,134.2386,92.19,143.9" fill="#181818" style="stroke:#181818;stroke-width:1;stroke-linejoin:miter;stroke-miterlimit:10;"/><text x="134.31" y="102.8569" fill="#000000" font-size="13" lengthAdjust="spacing" textLength="32.6587" font-family="sans-serif">QUIC</text></g><!--link S to RCC--><g class="link" data-entity-1="ent0001" data-entity-2="ent0003" id="lnk5" data-source-line="9" data-link-type="dependency"><path d="M191.2302,56.7229 C209.2102,81.9729 232.3913,114.556 250.3713,139.826" style="stroke:#181818;stroke-width:1;" fill="none" id="S-RCC"/><polygon points="188.33,52.65,190.2921,62.3014,191.2302,56.7229,196.8088,57.6611,188.33,52.65" fill="#181818" style="stroke:#181818;stroke-width:1;stroke-linejoin:miter;stroke-miterlimit:10;"/><polygon points="253.27,143.9,251.3115,134.2478,250.3713,139.826,244.7931,138.8858,253.27,143.9" fill="#181818" style="stroke:#181818;stroke-width:1;stroke-linejoin:miter;stroke-miterlimit:10;"/><text x="238.3017" y="95.3569" fill="#000000" font-size="13" lengthAdjust="spacing" textLength="76.0322" font-family="sans-serif">QUIC based</text><text x="230.31" y="110.4897" fill="#000000" font-size="13" lengthAdjust="spacing" textLength="92.0156" font-family="sans-serif">WebTransport</text></g><?plantuml-src JOsn2iCm30LtVyKZUtwWb2wQEZPEwTB5hZKO4Yd8ejyVKnBeUdTmhXjSaTLTLvHg_F6g4e9eOGoHxSis83N4aysMge2Mok8_CzDX9bxL6QJYfij_CX65474TnrlFSS7ZUQSJT7aGvDIulEN5kL-aRMg-0m00?></g></svg>