<svg xmlns="http://www.w3.org/2000/svg" xmlns:xlink="http://www.w3.org/1999/xlink" version="1.1" data-diagram-type="DESCRIPTION" style="width:378px;height:215px;background:#FFFFFF;" width="378px" height="215px" viewBox="0 0 378 215" zoomAndPan="magnify" preserveAspectRatio="none" contentStyleType="text/css"><?plantuml 1.2026.7beta3?><defs/><g><!--entity S--><g class="entity" data-qualified-name="S" id="ent0001" data-source-line="1"><polygon points="98.65,16,108.65,6,235.5357,6,235.5357,42.2969,225.5357,52.2969,98.65,52.2969,98.65,16" fill="#F1F1F1" style="stroke:#181818;stroke-width:0.5;stroke-linejoin:miter;stroke-miterlimit:10;"/><line x1="225.5357" y1="16" x2="235.5357" y2="6" style="stroke:#181818;stroke-width:0.5;"/><line x1="98.65" y1="16" x2="225.5357" y2="16" style="stroke:#181818;stroke-width:0.5;"/><line x1="225.5357" y1="16" x2="225.5357" y2="52.2969" style="stroke:#181818;stroke-width:0.5;"/><text x="113.65" y="38.9951" fill="#000000" font-size="14" lengthAdjust="spacing" textLength="96.8857" font-family="sans-serif">CentralServer</text></g><!--entity TC--><g class="entity" data-qualified-name="TC" id="ent0002" data-source-line="3"><polygon points="16,154.29,26,144.29,132.1797,144.29,132.1797,180.5869,122.1797,190.5869,16,190.5869,16,154.29" fill="#F1F1F1" style="stroke:#181818;stroke-width:0.5;stroke-linejoin:miter;stroke-miterlimit:10;"/><line x1="122.1797" y1="154.29" x2="132.1797" y2="144.29" style="stroke:#181818;stroke-width:0.5;"/><line x1="16" y1="154.29" x2="122.1797" y2="154.29" style="stroke:#181818;stroke-width:0.5;"/><line x1="122.1797" y1="154.29" x2="122.1797" y2="190.5869" style="stroke:#181818;stroke-width:0.5;"/><text x="31" y="177.2851" fill="#000000" font-size="14" lengthAdjust="spacing" textLength="76.1797" font-family="sans-serif">TrainClient</text></g><!--entity RCC--><g class="entity" data-qualified-name="RCC" id="ent0003" data-source-line="4"><polygon points="167.04,154.29,177.04,144.29,353.1308,144.29,353.1308,180.5869,343.1308,190.5869,167.04,190.5869,167.04,154.29" fill="#F1F1F1" style="stroke:#181818;stroke-width:0.5;stroke-linejoin:miter;stroke-miterlimit:10;"/><line x1="343.1308" y1="154.29" x2="353.1308" y2="144.29" style="stroke:#181818;stroke-width:0.5;"/><line x1="167.04" y1="154.29" x2="343.1308" y2="154.29" style="stroke:#181818;stroke-width:0.5;"/><line x1="343.1308" y1="154.29" x2="343.1308" y2="190.5869" style="stroke:#181818;stroke-width:0.5;"/><text x="182.04" y="177.2851" fill="#000000" font-size="14" lengthAdjust="spacing" textLength="146.0908" font-family="sans-serif">RemoteControlClient</text></g><!--link S to TC--><g class="link" data-entity-1="ent0001" data-entity-2="ent0002" id="lnk4" data-source-line="6" data-link-type="dependency"><path d="M148.9117,56.7801 C131.6817,82.0301 109.5279,114.4997 92.2879,139.7697" style="stroke:#181818;stroke-width:1;" fill="none" id="S-TC"/><polygon points="151.73,52.65,143.3531,57.8295,148.9117,56.7801,149.9612,62.3387,151.73,52.65" fill="#181818" style="stroke:#181818;stroke-width:1;stroke-linejoin:miter;stroke-miterlimit:10;"/><polygon points="89.47,143.9,97.8464,138.7197,92.2879,139.7697,91.2379,134.2111,89.47,143.9" fill="#181818" style="stroke:#181818;stroke-width:1;stroke-linejoin:miter;stroke-miterlimit:10;"/><text x="130.09" y="102.8569" fill="#000000" font-size="13" lengthAdjust="spacing" textLength="32.6587" font-family="sans-serif">QUIC</text></g><!--link S to RCC--><g class="link" data-entity-1="ent0001" data-entity-2="ent0003" id="lnk5" data-source-line="7" data-link-type="dependency"><path d="M185.2683,56.7801 C202.4983,82.0301 224.6521,114.4997 241.8921,139.7697" style="stroke:#181818;stroke-width:1;" fill="none" id="S-RCC"/><polygon points="182.45,52.65,184.2188,62.3387,185.2683,56.7801,190.8269,57.8295,182.45,52.65" fill="#181818" style="stroke:#181818;stroke-width:1;stroke-linejoin:miter;stroke-miterlimit:10;"/><polygon points="244.71,143.9,242.9421,134.2111,241.8921,139.7697,236.3336,138.7197,244.71,143.9" fill="#181818" style="stroke:#181818;stroke-width:1;stroke-linejoin:miter;stroke-miterlimit:10;"/><text x="229.8024" y="95.3569" fill="#000000" font-size="13" lengthAdjust="spacing" textLength="76.5908" font-family="sans-serif">QUIC-based</text><text x="222.09" y="110.4897" fill="#000000" font-size="13" lengthAdjust="spacing" textLength="92.0156" font-family="sans-serif">WebTransport</text></g><?plantuml-src JOqn2e0m34NtdYAuzm8YBfaSjOgBIyKCGaqaBPxV80gkxxtFPza8AYGk6bCWlKWhY1c2S_oeKUFEc7Oh7Z7YAmOwf12ABINzWW7HkG2Dzwt5K4C_TVW1ao_nQyoqBJpJQXUSJz5o0m00?></g></svg>