<svg xmlns="http://www.w3.org/2000/svg" xmlns:xlink="http://www.w3.org/1999/xlink" contentStyleType="text/css" data-diagram-type="DESCRIPTION" height="200px" preserveAspectRatio="none" style="width:391px;height:200px;background:#FFFFFF;" version="1.1" viewBox="0 0 391 200" width="391px" zoomAndPan="magnify"><?plantuml 1.2026.7beta1?><defs/><g><!--entity Server--><g class="entity" data-qualified-name="Server" data-source-line="3" id="ent0001"><polygon fill="#F1F1F1" points="129.36,16,139.36,6,215.2702,6,215.2702,42.2969,205.2702,52.2969,129.36,52.2969,129.36,16" style="stroke:#181818;stroke-width:0.5;stroke-linejoin:miter;stroke-miterlimit:10;"/><line style="stroke:#181818;stroke-width:0.5;" x1="205.2702" x2="215.2702" y1="16" y2="6"/><line style="stroke:#181818;stroke-width:0.5;" x1="129.36" x2="205.2702" y1="16" y2="16"/><line style="stroke:#181818;stroke-width:0.5;" x1="205.2702" x2="205.2702" y1="16" y2="52.2969"/><text fill="#000000" font-family="sans-serif" font-size="14" lengthAdjust="spacing" textLength="45.9102" x="144.36" y="38.9951">Server</text></g><!--entity TrainClient--><g class="entity" data-qualified-name="TrainClient" data-source-line="5" id="ent0002"><polygon fill="#F1F1F1" points="16,139.29,26,129.29,136.6299,129.29,136.6299,165.5869,126.6299,175.5869,16,175.5869,16,139.29" style="stroke:#181818;stroke-width:0.5;stroke-linejoin:miter;stroke-miterlimit:10;"/><line style="stroke:#181818;stroke-width:0.5;" x1="126.6299" x2="136.6299" y1="139.29" y2="129.29"/><line style="stroke:#181818;stroke-width:0.5;" x1="16" x2="126.6299" y1="139.29" y2="139.29"/><line style="stroke:#181818;stroke-width:0.5;" x1="126.6299" x2="126.6299" y1="139.29" y2="175.5869"/><text fill="#000000" font-family="sans-serif" font-size="14" lengthAdjust="spacing" textLength="80.6299" x="31" y="162.2851">Train Client</text></g><!--entity RemoteClient--><g class="entity" data-qualified-name="RemoteClient" data-source-line="6" id="ent0003"><polygon fill="#F1F1F1" points="171.82,139.29,181.82,129.29,366.8112,129.29,366.8112,165.5869,356.8112,175.5869,171.82,175.5869,171.82,139.29" style="stroke:#181818;stroke-width:0.5;stroke-linejoin:miter;stroke-miterlimit:10;"/><line style="stroke:#181818;stroke-width:0.5;" x1="356.8112" x2="366.8112" y1="139.29" y2="129.29"/><line style="stroke:#181818;stroke-width:0.5;" x1="171.82" x2="356.8112" y1="139.29" y2="139.29"/><line style="stroke:#181818;stroke-width:0.5;" x1="356.8112" x2="356.8112" y1="139.29" y2="175.5869"/><text fill="#000000" font-family="sans-serif" font-size="14" lengthAdjust="spacing" textLength="154.9912" x="186.82" y="162.2851">Remote Control Client</text></g><!--link Server to TrainClient--><g class="link" data-entity-1="ent0001" data-entity-2="ent0002" data-link-type="dependency" data-source-line="8" id="lnk4"><path d="M151.3768,56.6004 C134.1368,78.3804 114.3634,103.3697 97.1534,125.1097" fill="none" id="Server-TrainClient" style="stroke:#181818;stroke-width:1;"/><polygon fill="#181818" points="154.48,52.68,145.7578,57.2542,151.3768,56.6004,152.0305,62.2194,154.48,52.68" style="stroke:#181818;stroke-width:1;stroke-linejoin:miter;stroke-miterlimit:10;"/><polygon fill="#181818" points="94.05,129.03,102.7724,124.4562,97.1534,125.1097,96.4999,119.4907,94.05,129.03" style="stroke:#181818;stroke-width:1;stroke-linejoin:miter;stroke-miterlimit:10;"/><text fill="#000000" font-family="sans-serif" font-size="13" lengthAdjust="spacing" textLength="32.6587" x="131.31" y="95.3569">QUIC</text></g><!--link Server to RemoteClient--><g class="link" data-entity-1="ent0001" data-entity-2="ent0003" data-link-type="dependency" data-source-line="9" id="lnk5"><path d="M193.4541,56.5838 C210.8841,78.3638 230.8767,103.3855 248.2667,125.1255" fill="none" id="Server-RemoteClient" style="stroke:#181818;stroke-width:1;"/><polygon fill="#181818" points="190.33,52.68,192.8304,62.2062,193.4541,56.5838,199.0765,57.2076,190.33,52.68" style="stroke:#181818;stroke-width:1;stroke-linejoin:miter;stroke-miterlimit:10;"/><polygon fill="#181818" points="251.39,129.03,248.8918,119.5033,248.2667,125.1255,242.6445,124.5005,251.39,129.03" style="stroke:#181818;stroke-width:1;stroke-linejoin:miter;stroke-miterlimit:10;"/><text fill="#000000" font-family="sans-serif" font-size="13" lengthAdjust="spacing" textLength="92.0156" x="227.31" y="95.3569">WebTransport</text></g><?plantuml-src LOmx3eD034JxFSM8dWj4KPgjAFD1gVcuM0ayo5WvVn0Bqj9v_DwCSu4JFTqvOqmcWoTg2CfHKBt5Vc8LkXNvFC77kgI8KnBr7U-Fd0_b9JDT4Abkd4etaqCEUHZtkdwKAxZXsJRnWilYnh_IRmLT5vh_0G00?></g></svg>