<svg xmlns="http://www.w3.org/2000/svg" xmlns:xlink="http://www.w3.org/1999/xlink" version="1.1" data-diagram-type="DESCRIPTION" style="width:431px;height:215px;background:#FFFFFF;" width="431px" height="215px" viewBox="0 0 431 215" zoomAndPan="magnify" preserveAspectRatio="none" contentStyleType="text/css"><?plantuml 1.2026.7beta3?><defs/><g><!--entity S--><g class="entity" data-qualified-name="S" id="ent0001" data-source-line="1"><polygon points="155.65,16,165.65,6,292.5357,6,292.5357,42.2969,282.5357,52.2969,155.65,52.2969,155.65,16" fill="#F1F1F1" style="stroke:#181818;stroke-width:0.5;stroke-linejoin:miter;stroke-miterlimit:10;"/><line x1="282.5357" y1="16" x2="292.5357" y2="6" style="stroke:#181818;stroke-width:0.5;"/><line x1="155.65" y1="16" x2="282.5357" y2="16" style="stroke:#181818;stroke-width:0.5;"/><line x1="282.5357" y1="16" x2="282.5357" y2="52.2969" style="stroke:#181818;stroke-width:0.5;"/><text x="170.65" y="38.9951" fill="#000000" font-size="14" lengthAdjust="spacing" textLength="96.8857" font-family="sans-serif">CentralServer</text></g><!--entity TC--><g class="entity" data-qualified-name="TC" id="ent0002" data-source-line="3"><polygon points="16,154.29,26,144.29,132.1797,144.29,132.1797,180.5869,122.1797,190.5869,16,190.5869,16,154.29" fill="#F1F1F1" style="stroke:#181818;stroke-width:0.5;stroke-linejoin:miter;stroke-miterlimit:10;"/><line x1="122.1797" y1="154.29" x2="132.1797" y2="144.29" style="stroke:#181818;stroke-width:0.5;"/><line x1="16" y1="154.29" x2="122.1797" y2="154.29" style="stroke:#181818;stroke-width:0.5;"/><line x1="122.1797" y1="154.29" x2="122.1797" y2="190.5869" style="stroke:#181818;stroke-width:0.5;"/><text x="31" y="177.2851" fill="#000000" font-size="14" lengthAdjust="spacing" textLength="76.1797" font-family="sans-serif">TrainClient</text></g><!--entity RCC--><g class="entity" data-qualified-name="RCC" id="ent0003" data-source-line="4"><polygon points="220.04,154.29,230.04,144.29,406.1308,144.29,406.1308,180.5869,396.1308,190.5869,220.04,190.5869,220.04,154.29" fill="#F1F1F1" style="stroke:#181818;stroke-width:0.5;stroke-linejoin:miter;stroke-miterlimit:10;"/><line x1="396.1308" y1="154.29" x2="406.1308" y2="144.29" style="stroke:#181818;stroke-width:0.5;"/><line x1="220.04" y1="154.29" x2="396.1308" y2="154.29" style="stroke:#181818;stroke-width:0.5;"/><line x1="396.1308" y1="154.29" x2="396.1308" y2="190.5869" style="stroke:#181818;stroke-width:0.5;"/><text x="235.04" y="177.2851" fill="#000000" font-size="14" lengthAdjust="spacing" textLength="146.0908" font-family="sans-serif">RemoteControlClient</text></g><!--link TC to S--><g class="link" data-entity-1="ent0002" data-entity-2="ent0001" id="lnk4" data-source-line="6" data-link-type="dependency"><path d="M104.79,143.89 C116.43,135 129.63,124.48 141.09,114.29 C163.32,94.52 183.5782,73.7957 199.9282,56.3757" style="stroke:#181818;stroke-width:1;" fill="none" id="TC-to-S"/><polygon points="203.35,52.73,194.2742,56.5549,199.9282,56.3757,200.1074,62.0297,203.35,52.73" fill="#181818" style="stroke:#181818;stroke-width:1;stroke-linejoin:miter;stroke-miterlimit:10;"/><text x="179.3966" y="95.3569" fill="#000000" font-size="13" lengthAdjust="spacing" textLength="36.7085" font-family="sans-serif">Video</text><text x="174.09" y="110.4897" fill="#000000" font-size="13" lengthAdjust="spacing" textLength="47.3218" font-family="sans-serif">Stream</text></g><!--link S to TC--><g class="link" data-entity-1="ent0001" data-entity-2="ent0002" id="lnk5" data-source-line="7" data-link-type="dependency"><path d="M155.3,33.29 C120.21,38.81 80.34,51.98 58.09,82.29 C44.98,100.16 50.4155,121.2085 59.0355,139.4685" style="stroke:#181818;stroke-width:1;" fill="none" id="S-to-TC"/><polygon points="61.17,143.99,60.9452,134.1437,59.0355,139.4685,53.7107,137.5589,61.17,143.99" fill="#181818" style="stroke:#181818;stroke-width:1;stroke-linejoin:miter;stroke-miterlimit:10;"/><text x="72.2455" y="95.3569" fill="#000000" font-size="13" lengthAdjust="spacing" textLength="47.2773" font-family="sans-serif">Control</text><text x="59.09" y="110.4897" fill="#000000" font-size="13" lengthAdjust="spacing" textLength="73.5884" font-family="sans-serif">Commands</text></g><!--link S to RCC--><g class="link" data-entity-1="ent0001" data-entity-2="ent0003" id="lnk6" data-source-line="9" data-link-type="dependency"><path d="M233.25,52.49 C240.89,69.99 252.66,94.59 266.09,114.29 C273.16,124.67 278.739,131.4742 286.959,140.2842" style="stroke:#181818;stroke-width:1;" fill="none" id="S-to-RCC"/><polygon points="290.37,143.94,287.1549,134.6307,286.959,140.2842,281.3055,140.0883,290.37,143.94" fill="#181818" style="stroke:#181818;stroke-width:1;stroke-linejoin:miter;stroke-miterlimit:10;"/><text x="272.3966" y="95.3569" fill="#000000" font-size="13" lengthAdjust="spacing" textLength="36.7085" font-family="sans-serif">Video</text><text x="267.09" y="110.4897" fill="#000000" font-size="13" lengthAdjust="spacing" textLength="47.3218" font-family="sans-serif">Stream</text></g><!--link RCC to S--><g class="link" data-entity-1="ent0003" data-entity-2="ent0001" id="lnk7" data-source-line="10" data-link-type="dependency"><path d="M321.29,144.11 C326.4,126.16 330.13,100.95 319.09,82.29 C311.71,69.83 304.4777,62.6953 291.9477,55.2453" style="stroke:#181818;stroke-width:1;" fill="none" id="RCC-to-S"/><polygon points="287.65,52.69,293.3416,60.7277,291.9477,55.2453,297.4301,53.8514,287.65,52.69" fill="#181818" style="stroke:#181818;stroke-width:1;stroke-linejoin:miter;stroke-miterlimit:10;"/><text x="340.2455" y="95.3569" fill="#000000" font-size="13" lengthAdjust="spacing" textLength="47.2773" font-family="sans-serif">Control</text><text x="327.09" y="110.4897" fill="#000000" font-size="13" lengthAdjust="spacing" textLength="73.5884" font-family="sans-serif">Commands</text></g><?plantuml-src POmn2iGm30HxlKAapmTINACVH2PL6e5L66m979FtnsTyS91sPsVCe-92QgrAPgstrWNbGWQmWKALP9HJVmmGQ89TYpSbxwRdlyDE1108r_M3Z1iUAQgVngsg5E2nTxpXL4yZBqKiNZ1fBxoyx_OhliG7?></g></svg>